<svg width="1529" height="1313" viewBox="0 0 1529 1313" fill="none" xmlns="http://www.w3.org/2000/svg">
<path d="M493.641 362.963C494.4 362.186 495.021 360.927 495.938 360.707C506.362 358.2 516.831 355.852 526.893 353.552C527.789 350.202 528.64 347.019 530.213 344.059C530.935 346.788 530.935 349.295 530.935 352.677C531.476 352.86 533.157 353.426 535.099 354.403C535.272 355.417 535.184 356.02 534.715 356.626C533.659 356.866 532.985 357.105 531.729 357.462C525.717 359.011 520.264 360.37 514.862 361.886C492.145 368.262 469.827 375.767 445.222 373.755C430.689 372.567 415.945 373.474 401.296 373.585C381.846 373.732 362.932 376.942 344.367 382.193C321.879 388.555 299.553 395.544 276.768 400.838C247.132 407.725 217.106 413.181 187.281 419.389C185.738 419.71 183.778 421.041 183.242 422.335C177.44 436.319 174.663 440.656 188.309 452.396C193.937 457.239 199.218 462.424 204.309 467.668C203.916 468.435 203.871 468.987 203.826 469.538C204.464 468.907 205.101 468.276 206.246 467.712C210.673 468.958 214.592 470.136 218.519 471.802C218.996 473.172 219.465 474.055 219.934 474.938C220.334 474.843 220.735 474.749 221.135 474.654C221.135 473.053 221.135 471.451 221.427 469.499C238.426 459.98 256.838 455.139 275.889 453.585C298.837 451.713 321.955 451.652 344.987 450.569C359.544 449.884 374.167 449.404 388.6 447.691C411.882 444.926 434.921 444.51 458.007 449.066C474.914 452.403 491.222 450.419 507.18 442.774C512.001 442.935 516.19 443.067 520.844 443.48C532.622 442.476 543.934 441.192 555.608 440.204C557.313 442.223 558.656 443.945 558.953 444.326C571.15 441.577 582.166 438.865 593.296 436.632C617.434 431.79 641.682 427.405 665.789 422.439C691.542 417.134 717.015 410.555 742.92 406.035C771.642 401.023 796.697 391.44 813.02 367.711C813.267 367.352 813.794 367.138 813.985 366.767C816.332 362.214 818.64 357.644 821.521 352.934C830.793 351.444 839.896 351.151 848.137 348.547C868.904 341.985 889.629 336.021 911.818 335.058C928.995 334.313 944.484 329.116 957.189 317.818C959.017 316.193 962.143 315.21 964.757 315.032C980.25 313.976 995.77 313.245 1011.34 313C1011.92 326.586 1011.54 339.673 1013.18 352.542C1014.93 366.191 1018.6 379.632 1021.41 393.675C1027.9 408.189 1031.16 422.704 1030.59 438.031C1030.41 443.107 1031.97 448.239 1032.69 453.922C1033.13 458.151 1033.7 461.796 1034.08 465.459C1036.48 488.843 1040.26 512.049 1049.95 533.889C1060.89 558.551 1072.49 582.987 1084.72 607.124C1088.34 614.265 1092.79 623.22 1102.8 624.061C1119.67 625.479 1136.7 625.275 1153.66 625.649C1154.98 625.678 1156.6 625.194 1157.61 624.425C1162.24 620.908 1167.25 621.327 1172.31 623.069C1176.92 624.661 1181.27 627.051 1185.99 628.203C1188.57 628.83 1191.67 627.615 1195.07 627.104C1198.54 626.566 1201.47 626.154 1205.04 625.788C1208.27 625.818 1210.94 626.137 1213.43 625.674C1215.22 625.342 1216.78 623.96 1218.43 623.046C1217.19 621.719 1216.21 619.983 1214.65 619.137C1208.8 615.951 1202.87 612.865 1196.77 610.113C1192.25 608.071 1187.56 605.811 1182.69 605.085C1176.94 604.227 1170.87 605.429 1165.04 604.838C1149.2 603.229 1133.3 601.709 1117.66 598.991C1110.77 597.794 1103.85 594.128 1102.35 586.544C1101.34 581.467 1101.37 576.216 1101.57 570.968C1106.16 571.184 1110.14 571.397 1114.09 571.781C1124.58 572.798 1135.04 574.626 1145.53 574.769C1159.61 574.96 1173.7 573.935 1187.78 573.268C1190.3 573.148 1193.04 572.653 1195.2 571.547C1196.78 570.74 1198.17 568.74 1198.48 567.085C1198.63 566.333 1196.11 564.72 1194.53 564.218C1191.21 563.163 1187.75 562.392 1184.29 561.844C1169.73 559.544 1155.16 557.369 1140.59 554.692C1140.59 553.325 1140.59 552.414 1140.59 551.503C1148.34 552.319 1156.15 552.82 1163.83 554.022C1176.15 555.951 1188.46 558.088 1200.62 560.746C1203.19 561.307 1206.41 564.264 1206.88 566.542C1207.28 568.524 1204.43 571.266 1202.63 573.391C1198.7 578.027 1193.24 578.781 1187.12 578.834C1169.03 578.991 1150.94 579.909 1132.85 579.898C1125.14 579.893 1117.44 578.32 1109.76 577.462C1108.76 587.265 1117 593.865 1127.97 596.053C1146.74 599.797 1165.59 598.46 1184.32 599.968C1198.35 601.098 1210 609.778 1222.24 615.86C1227.93 618.688 1226.82 625.76 1221.22 629.193C1219.91 629.996 1218.36 630.723 1216.83 630.934C1201.92 632.986 1187.12 637.194 1172.16 629.817C1168.83 628.173 1163.22 630.726 1158.63 630.93C1145.77 631.504 1132.9 632.181 1120.04 632.158C1114.17 632.148 1108.29 630.626 1102.43 629.721C1088.56 627.579 1082.13 618.218 1076.64 607.613C1071.49 597.679 1064.97 588.314 1060.32 578.204C1054.26 565.026 1049.46 551.358 1044.11 537.904C1041.57 531.529 1038.91 525.196 1036.52 518.775C1035.06 514.864 1033.62 510.884 1032.89 506.826C1031.61 499.765 1030.97 492.608 1029.89 485.514C1029.45 482.626 1028.55 479.797 1027.87 476.94C1027.13 473.869 1025.95 470.823 1025.75 467.722C1024.64 451.258 1024.57 434.693 1022.49 418.342C1021.47 410.33 1016.75 402.741 1013.93 394.891C1011.97 389.431 1009.29 383.927 1008.85 378.314C1007.37 359.441 1006.76 340.51 1005.81 321.601C1005.75 320.327 1005.69 319.054 1005.62 317.554C992.502 318.839 979.72 320.037 966.96 321.41C965.26 321.593 963.285 322.302 962.092 323.381C950.328 334.028 935.295 336.832 919.858 339.907C902.024 343.461 883.06 341.571 866.159 349.685C860.78 352.267 854.788 353.932 848.895 355.393C842.518 356.975 835.927 357.828 829.452 358.994C826.936 362.516 824.676 367.063 821.099 370.42C811.319 379.603 801.735 389.214 790.607 396.84C783.073 402.004 773.259 404.667 764.096 407.401C755.091 410.088 745.645 411.557 736.349 413.37C723.425 415.891 710.389 417.954 697.539 420.748C688.507 422.711 679.813 426.017 670.765 427.888C662.706 429.554 654.254 429.59 646.179 431.21C633.966 433.659 621.972 437.015 609.802 439.666C604.462 440.83 598.822 440.834 593.492 442.023C585.379 443.831 577.519 446.696 569.351 448.171C564.337 449.076 558.943 448.061 553.731 448.218C550.298 448.322 546.894 449.225 543.461 449.332C537.321 449.525 531.123 449.833 525.032 449.295C512.948 448.228 501.778 450.805 490.89 455.231C489.669 455.727 488.205 455.849 486.843 455.899C470.514 456.498 454.495 454.534 438.317 452.45C425.5 450.799 412.125 452.824 398.997 453.219C398.528 453.233 398.06 453.278 397.591 453.303C381.556 454.176 365.526 455.137 349.485 455.898C329.186 456.862 308.876 457.628 288.575 458.556C281.826 458.864 274.783 458.402 268.414 460.056C256.052 463.268 244.02 467.603 231.967 471.755C228.686 472.886 225.816 475.026 222.647 476.764C229.495 486.881 223.222 495.97 221.894 505.067C220.746 504.517 220.183 504.091 219.62 503.665C219.503 504.007 219.218 504.605 219.297 504.649C219.998 505.039 220.762 505.331 221.508 505.651C219.571 512.905 217.51 520.134 215.731 527.421C213.987 534.561 217.875 540.011 222.132 545.597C220.552 546.221 219.372 546.391 218.21 546.533C218.227 546.503 218.253 546.443 218.159 546.067C217.586 545.477 217.107 545.262 216.711 545.063C216.795 545.078 216.668 545.184 216.76 544.698C215.106 543.06 213.36 541.907 211.547 540.756C211.48 540.757 211.505 540.635 211.464 540.103C210.89 535.438 210.356 531.304 209.73 526.746C209.842 525.484 210.045 524.646 210.516 523.629C210.697 522.741 210.611 522.033 210.472 520.791C210.676 519.589 210.933 518.922 211.247 518.085C211.374 517.679 211.396 517.441 211.313 516.892C211.254 516.585 211.511 516.009 212.057 516.006C213.809 515.017 216.014 514.06 216.048 513.041C216.198 508.562 215.721 504.065 215.385 499.433C215.298 499.292 215.53 499.048 216.002 498.831C216.785 495.724 217.096 492.832 217.326 489.39C217.292 486.988 217.34 485.137 217.711 482.95C216.96 480.22 216.387 477.422 214.63 475.581C213.537 474.434 210.534 470.698 208.398 475.889C207.47 476.432 206.755 476.674 205.474 476.889C202.504 477.564 200.142 478.48 197.679 478.902C195.653 479.249 193.336 479.496 191.451 478.93C187.135 477.636 183.005 475.818 178.792 474.208C178.784 474.204 178.769 474.195 178.594 473.899C177.993 473.401 177.567 473.199 177.205 472.997C177.268 472.996 177.213 473.102 177.26 472.568C174.554 467.843 172.776 462.687 166.048 462.422C166.027 462.429 166.05 462.387 166.06 461.861C167.78 456.658 168.851 452.177 163 450.846C164.566 445.576 166.055 440.828 167.378 436.041C168.895 430.551 170.265 425.026 171.699 419.517C173.041 419.342 174.382 419.167 176.399 419.421C177.589 420.832 178.103 421.815 178.617 422.798C179.105 422.471 179.593 422.145 180.08 421.819C179.047 420.776 178.014 419.734 176.981 418.691C181.517 416.72 185.854 414.023 190.627 412.909C206.732 409.149 222.945 405.747 239.21 402.616C248.633 400.802 258.431 400.464 267.712 398.232C284.581 394.176 301.211 389.266 317.899 384.588C327.435 381.914 336.89 378.995 346.96 376.49C347.547 377.025 347.555 377.256 347.379 377.568C347.341 377.617 347.487 377.584 347.868 377.406C347.902 376.876 347.7 376.49 347.497 376.105C358.968 373.963 370.439 371.822 382.723 370.055C384.319 370.26 385.1 370.09 385.882 369.92C407.774 369.833 429.68 369.271 451.551 369.84C464.524 370.177 476.311 366.618 489.003 363.82C490.977 363.78 492.309 363.372 493.641 362.963ZM199.189 473.742C199.751 472.974 200.312 472.207 200.874 471.44C200.327 471.257 199.781 471.073 199.235 470.89C198.936 471.826 198.637 472.762 199.189 473.742ZM178.388 448.689C178.231 449.431 178.074 450.174 177.917 450.916C178.49 450.923 179.064 450.93 179.638 450.937C179.501 450.191 179.365 449.445 178.388 448.689ZM170.909 429.397C171.287 429.761 171.664 430.126 172.042 430.491C172.206 430.347 172.37 430.203 172.534 430.058C172.156 429.694 171.778 429.329 170.909 429.397ZM184.052 471.002C184.448 470.654 184.843 470.307 185.239 469.96C185.083 469.809 184.926 469.658 184.77 469.507C184.374 469.855 183.979 470.203 184.052 471.002ZM506.423 360.771C505.862 360.893 505.302 361.014 504.741 361.135C504.862 361.29 505.006 361.589 505.102 361.576C505.671 361.504 506.229 361.359 506.423 360.771ZM319.59 386.878C319.818 386.809 320.047 386.74 320.275 386.671C320.046 386.603 319.816 386.535 319.59 386.878Z" fill="#FAFAF7"/>
<path d="M1017.76 774.019C1020.23 773.129 1022.68 771.507 1025.16 771.468C1040.28 771.228 1055.47 770.488 1070.51 771.58C1086.97 772.774 1103.26 775.956 1119.68 777.882C1125.5 778.564 1131.49 778.494 1137.36 778.083C1153.46 776.954 1168.07 781.871 1182.49 787.715C1193.76 792.283 1204.95 797.049 1216.18 801.696C1222.59 804.349 1229.28 806.498 1235.4 809.664C1243.54 813.87 1246.56 821.961 1249.05 829.766C1251.96 838.877 1256.6 847.753 1255.1 857.848C1255.02 858.4 1258.5 860.415 1259.66 860.006C1269.16 856.658 1278.99 853.731 1287.79 849.071C1302.11 841.495 1317.16 834.958 1333.16 834.571C1345.79 834.266 1358.71 838.481 1371.19 841.773C1378.01 843.571 1384.44 847.215 1390.58 850.762C1398.49 855.33 1402 862.785 1403.96 871.328C1405.31 877.199 1407.64 882.954 1410.26 888.44C1414.12 896.533 1416.73 904.759 1416.61 913.744C1416.48 923.955 1417.77 934.334 1416.26 944.334C1414.62 955.126 1413.83 966.518 1406.65 975.948C1402.71 981.125 1397.41 984.178 1390.91 983.728C1381.92 983.106 1373 981.539 1363.95 980.363C1357.06 981.875 1349.27 983.037 1341.87 985.37C1334.47 987.705 1326.8 990.284 1320.47 994.454C1313.58 998.985 1304.11 1001.18 1296.79 995.864C1289.33 990.452 1280.91 990.956 1272.64 991.858C1260.88 993.139 1250.32 991.907 1242.6 982.26C1241.45 980.828 1240.8 978.698 1240.73 976.862C1240.5 970.97 1240.82 965.057 1240.54 959.169C1240.46 957.405 1239.39 954.371 1238.32 954.165C1225.23 951.661 1213.57 941.712 1199.81 944.746C1189.03 947.123 1177.34 947.74 1167.99 955.726C1163.61 959.47 1155.95 959.404 1150.39 962.202C1132.41 971.266 1113.06 971.006 1092.51 969.957C1093.86 978.692 1094.02 986.774 1096.58 994.076C1098.56 999.685 1104.5 1002.81 1111.28 1002.9C1128.65 1003.11 1145.27 1006.78 1161.74 1011.88C1167.76 1013.74 1174.62 1012.95 1181.04 1013.81C1194.4 1015.58 1203.66 1024.38 1213.41 1032.09C1217.45 1035.29 1214.38 1040.5 1207.87 1043.87C1201.08 1047.38 1194.06 1048.33 1186.56 1047.9C1176.78 1047.35 1166.44 1048.69 1157.32 1046.07C1146.33 1042.92 1135.62 1044.14 1124.82 1043.99C1117.59 1043.88 1110.24 1046.82 1103.11 1046.29C1082.69 1044.76 1065.48 1037.57 1055.84 1018.45C1050.63 1008.14 1044.46 998.27 1038.78 988.179C1036.64 984.39 1033.84 980.732 1032.74 976.665C1030.82 969.59 1026 968.949 1019.61 968.755C1001.43 968.203 983.022 968.474 965.186 965.636C953.767 963.819 942.63 963.268 931.304 963.562C927.067 963.672 922.777 966.289 918.679 965.942C909.835 965.192 900.836 964.052 892.435 961.47C888.521 960.266 885.894 960.655 883.59 962.599C872.832 971.674 859.522 974.296 846.177 977.109C838.834 978.657 831.611 980.738 824.344 982.611C823.046 982.946 821.8 983.787 820.518 983.811C792.982 984.333 765.407 985.774 737.92 984.85C721.332 984.293 704.906 979.861 688.356 977.503C675.824 975.718 663.016 975.326 650.681 972.759C633.288 969.14 615.842 970.742 598.412 970.212C597.31 970.179 595.898 970.052 595.177 969.406C587.519 962.544 577.521 963.866 568.408 961.901C561.902 960.498 555.875 957.158 549.434 955.335C535.726 951.454 521.806 948.251 508.141 944.245C502.537 942.603 497.366 939.602 492 936.319C492.362 933.872 492.722 932.325 493.595 930.808C496.651 931.988 499.248 933.042 501.73 934.306C511.926 939.499 522.183 944.475 534.517 944.807C537.988 945.696 541.086 946.236 544.73 946.877C547.706 947.703 550.321 948.092 552.534 949.212C565.131 955.591 578.457 957.97 592.938 956.793C594.792 963.749 598.584 965.67 605.897 965.274C618.815 964.574 631.968 964.404 644.77 965.943C673.317 969.376 701.665 974.302 730.174 978.055C761.057 982.119 792.18 981.283 822.626 975.987C844.915 972.109 868.799 969.686 886.03 952.446C897.22 959.394 909.313 959.536 921.632 959.14C934.236 958.734 946.888 958.313 959.467 958.913C982.715 960.021 1005.93 961.857 1029.15 963.427C1032.09 963.626 1034.42 963.388 1034.05 959.998C1036.4 965.384 1038.02 970.637 1040.58 975.424C1048.31 989.868 1056.03 1004.34 1064.55 1018.36C1067.9 1023.87 1072.67 1029.07 1077.97 1032.91C1089.52 1041.28 1103.33 1040.11 1116.76 1039.15C1134.33 1037.9 1151.89 1035.09 1168.99 1042.25C1171.6 1043.35 1175.19 1042.31 1178.92 1042.26C1181.9 1042.23 1184.28 1042.18 1187.26 1042.24C1192.08 1041.97 1197.11 1044.01 1200.16 1038.57C1206.75 1036.92 1206.75 1036.92 1206.44 1033.78C1196.93 1028.27 1188.18 1021.5 1178.19 1018.52C1164.69 1014.48 1150.28 1013.12 1136.19 1011.06C1124.85 1009.4 1113.25 1009.08 1102.07 1006.8C1097.35 1005.84 1090.63 1002.04 1089.66 998.352C1086.75 987.327 1086.23 975.72 1085.42 964.381C1104.69 965.804 1123.25 967.212 1140.78 958.538C1145.12 956.393 1150.03 954.895 1154.85 954.176C1160.68 953.305 1164.36 950.695 1166.84 945.565C1171 944.644 1174.5 943.347 1178.13 942.682C1191.95 940.149 1205.46 934.213 1219.96 940.928C1228.16 944.721 1237.21 946.767 1245.65 950.122C1247.22 950.745 1248.51 953.844 1248.55 955.826C1248.66 961.209 1247.53 966.628 1247.8 971.991C1248.31 982.467 1251.91 985.33 1262.91 985.3C1273.65 985.272 1284.4 985.103 1295.12 985.567C1297.35 985.664 1300.54 987.831 1301.4 989.806C1303.13 993.723 1305.17 993.846 1308.48 992.176C1313.68 989.554 1318.72 986.45 1324.21 984.562C1337.86 979.86 1351.73 975.728 1365.94 971.628C1385.25 984.619 1402.24 978.99 1405.97 958.206C1411.8 925.763 1409.43 894.076 1393.59 864.253C1391.45 860.232 1387.82 856.158 1383.78 853.981C1356.43 839.228 1328.51 834.425 1299.04 849.428C1285.79 856.175 1271.51 861.055 1257.34 866.476C1253.41 863.977 1249.84 861.786 1246.32 859.07C1246.92 856.006 1248.47 853.193 1247.82 850.977C1245.93 844.551 1243.3 838.309 1240.63 832.124C1239.98 830.611 1238.07 829.596 1236.75 827.785C1237.2 818.737 1232.84 813 1224.96 810.135C1218.07 807.632 1210.8 806.103 1203.2 804.048C1201.04 803.145 1199.38 802.313 1197.7 801.532C1180.11 793.354 1162.88 784.169 1142.65 783.34C1131.58 782.886 1120.42 783.147 1109.46 781.811C1080.47 778.275 1051.55 774.333 1021.95 776.466C1020.38 775.415 1019.07 774.717 1017.76 774.019Z" fill="#F9F9F7"/>
<path d="M1140 550.524C1140.58 551.534 1140.58 552.44 1139.95 553.85C1136.43 554.161 1133.53 553.968 1130.56 553.45C1129.59 553.095 1128.7 553.064 1127.31 553.049C1126.18 552.952 1125.53 552.84 1124.68 552.481C1124.1 551.95 1123.68 551.81 1122.78 551.851C1121.82 551.817 1121.28 551.744 1120.61 551.183C1118.45 550.238 1116.41 549.781 1114.05 549.421C1113.29 549.586 1112.84 549.568 1112.15 548.999C1111.19 547.981 1110.47 546.938 1109.78 546.95C1102.82 547.073 1102.15 543.283 1102.21 538.058C1102.44 516.833 1102.43 495.604 1102.13 474.381C1102.1 471.985 1099.69 469.617 1098.3 466.646C1098.14 461.686 1098.08 457.316 1098.38 452.696C1098.14 451.312 1097.54 450.178 1096.85 448.562C1096.71 447.096 1096.67 446.114 1097.03 444.788C1097.14 438.292 1098.57 431.734 1092.46 426.508C1092.41 425.487 1092.42 424.902 1092.81 423.959C1092.5 420.383 1091.79 417.164 1091.02 413.511C1090.97 412.494 1090.98 411.911 1091.35 411.042C1091.08 409.222 1090.44 407.689 1089.7 405.72C1089.61 404.695 1089.61 404.105 1089.97 403.204C1089.68 400.948 1089.02 399.002 1088.29 396.618C1088.21 395.589 1088.21 394.998 1088.6 394.017C1089.51 385.273 1090.38 376.917 1090.29 368.57C1090.27 366.357 1087.32 364.169 1085.61 361.454C1085 358.224 1084.5 355.511 1084.29 352.582C1083.99 351.665 1083.39 350.964 1082.68 349.748C1082.61 347.835 1082.64 346.438 1083.2 344.914C1083.77 340.978 1083.82 337.17 1083.86 332.762C1084.32 326.513 1084.81 320.862 1085.58 314.856C1088.54 310.837 1091.22 307.172 1094.32 303.292C1102.23 292.906 1109.24 282.548 1110.39 269.61C1114.33 265.96 1117.87 262.486 1122.14 259.087C1133.71 259.239 1144.59 259.741 1155.4 259.235C1161.97 258.928 1163.94 261.396 1164.82 266.747C1165.52 270.949 1167.18 275.119 1169.08 279.031C1173.63 288.4 1180.38 291.043 1190.04 285.665C1197.6 281.457 1205.58 280.297 1213.71 278.319C1220.2 276.739 1225.35 275.403 1229.71 282.288C1233.23 278.706 1235.87 275.735 1238.84 273.056C1244.41 268.009 1248.34 261.492 1256.43 258.675C1261.27 256.987 1265.5 253.602 1269.7 250.613C1273.21 248.112 1276.27 245.078 1280.11 242.4C1302.82 248.011 1316.69 238.099 1313.34 218.583C1307.95 187.205 1294.01 159.546 1268.88 137.179C1266.42 134.99 1263.24 132.782 1260.01 132.123C1235.03 127.006 1210.07 126.816 1189.03 141.879C1172.23 153.902 1157.54 168.412 1141.93 181.828C1141.77 181.959 1141.76 182.226 1141.12 182.426C1138.55 182.87 1136.44 183.115 1134.52 183.8C1123.38 187.781 1112.91 187.825 1103.78 179.188C1105.54 173.082 1102.88 170.547 1096.94 170.047C1093.91 169.791 1090.86 169.331 1087.91 168.668C1061.41 162.725 1034.76 158.942 1007.58 164.313C985.314 168.714 963.118 173.42 940.632 177.58C937.583 177.222 934.791 177.275 932 177.328C940.535 174.312 948.864 170.571 957.659 168.468C968.243 165.937 979.394 165.406 989.995 162.92C1008.21 158.65 1026.64 155.866 1045.32 156.839C1056.85 157.439 1068.22 160.593 1079.68 162.486C1084.44 163.272 1089.32 163.494 1094.03 164.455C1098.88 165.443 1103.7 166.749 1108.28 168.479C1109.97 169.116 1111.63 171.198 1112.1 172.901C1114.47 181.423 1117.33 182.722 1127.12 180.137C1144.13 175.642 1156.23 164.84 1167.17 153.151C1178.79 140.736 1191.85 131.862 1209.61 127.606C1225.11 123.891 1240.54 124.892 1255.59 126.088C1264.32 126.782 1273.61 133.226 1280.44 139.204C1288.67 146.403 1295.18 155.5 1301.25 164.445C1305.82 171.166 1309.57 178.683 1311.85 186.307C1315.98 200.125 1321.36 213.668 1320.98 228.557C1320.77 236.652 1308.43 249.71 1298.65 248.907C1297.48 248.811 1296.28 248.927 1295.1 248.889C1287.2 248.628 1279.87 248.183 1274.61 256.077C1272.1 259.832 1265.23 260.91 1261.08 264.023C1254.29 269.1 1247.61 274.448 1241.83 280.448C1237.26 285.19 1232.61 287.313 1226.11 285.26C1215.01 281.758 1205.06 285.434 1196.33 290.659C1184.92 297.486 1171.8 293.503 1165.46 286.317C1161.64 281.983 1159.25 276.125 1157.87 270.604C1156.88 266.642 1155.44 265.642 1151.52 265.745C1145.15 265.912 1138.65 266.499 1132.42 265.612C1124.48 264.482 1119.99 269.252 1118.64 273.972C1113.62 291.51 1102.78 305.915 1091.76 320.36C1091.63 320.533 1091.26 320.655 1091.26 320.798C1091.44 332.838 1091.55 344.881 1091.94 356.916C1092.02 359.314 1094.03 361.8 1093.68 364.048C1091.27 379.193 1097.33 393.548 1098.32 408.384C1099.09 420.067 1101.11 431.79 1103.9 443.226C1109.46 466.078 1104.96 489.126 1106.61 512.019C1107.33 521.922 1108.04 531.864 1109.78 541.634C1110.13 543.61 1114.91 545.581 1118.01 546.354C1125.03 548.106 1132.27 549.111 1140 550.524Z" fill="#F8F9F8"/>
<path d="M218.389 912.402C213.617 916.21 208.703 919.868 204.114 923.866C199.463 927.92 195.054 932.236 190.688 936.575C187.039 940.202 185.745 944.455 185.075 949.652C184.454 954.46 184.743 958.754 185.102 963.472C185.607 970.088 184.946 977.579 181.963 983.376C179.8 987.579 173.375 990.335 168.263 992.432C164.377 994.025 159.536 994.128 155.17 993.92C138.812 993.141 123.256 989.54 112.006 977.272C108.507 973.456 107.743 967.435 105.388 962.573C100.487 952.45 102.105 941.673 102.933 931.371C103.698 921.849 106.577 912.215 110.168 903.228C115.921 888.835 123.449 875.093 129.357 860.75C131.648 855.19 131.225 848.667 132.668 842.722C134.303 835.991 136.339 829.312 138.768 822.803C141.099 816.559 144.39 810.646 146.843 804.438C150.991 793.935 167.25 786.391 179.01 789.85C194.282 794.341 209.545 798.86 224.772 803.488C226.461 804.001 227.885 805.306 229.902 807.096C231.634 808.16 232.896 808.371 234.159 808.583C234.159 808.583 234.034 808.647 234.242 809.052C234.791 811.011 235.132 812.563 234.951 814.061C215.096 807.821 195.909 801.165 176.371 795.633C165.012 792.416 160.519 794.229 155.275 804.163C149.333 815.42 143.015 827.075 140.463 839.243C136.642 857.463 131.156 874.868 122.148 891.168C111.474 910.481 107.835 930.856 109.818 952.363C111.517 970.79 121.479 982.625 140.046 986.482C147.293 987.988 155.157 987.771 162.62 987.109C171.704 986.302 176.062 981.392 176.753 972.71C177.148 967.748 177.316 962.702 176.848 957.756C175.483 943.317 181.348 932.121 193.081 923.452C201.911 916.928 210.962 910.677 219.778 904.135C225.27 900.061 228.997 894.975 228.675 887.794C230.363 887.776 231.489 887.805 232.688 888.352C233.213 891.274 233.664 893.676 234.116 896.079C234.116 896.079 234.051 896.685 233.447 897.034C228.245 901.097 223.557 904.72 219.128 908.611C218.334 909.308 218.608 911.11 218.389 912.402Z" fill="#F6F9F7"/>
<path d="M931.444 178.048C934.549 177.967 937.341 177.915 940 178.536C919.935 186.356 899.581 192.679 880.169 200.845C851.636 212.848 824.697 228.142 792.784 234.172C785.027 237.497 778.091 237.072 770.421 234.734C741.876 226.03 713.614 227.353 686.638 239.671C664.672 249.701 649.138 266.251 636.557 284.897C630.769 293.474 623.563 299.771 613.969 304.459C590.107 316.119 566.499 328.21 542.578 339.767C536.226 342.836 532.352 346.135 535.099 353C533.42 352.442 531.741 351.885 531.2 351.705C531.2 348.375 531.2 345.908 531 343.01C536.698 338.727 542.232 334.269 548.562 331.134C568.107 321.455 588.436 313.005 607.478 302.597C616.698 297.558 626.137 291.934 631.489 281.972C635.69 274.154 642.637 267.439 648.966 260.7C660.08 248.867 673.262 239.105 689.211 233.278C697.738 230.163 707.039 228.549 716.151 227.064C724.965 225.627 734.131 223.886 742.878 224.681C755.847 225.86 768.583 229.157 783.694 231.978C791.83 229.598 802.968 226.795 813.722 223.078C826.108 218.797 838.244 213.887 850.326 208.924C863.418 203.545 876.278 197.705 889.324 192.231C896.896 189.054 904.634 186.204 913.295 183.364C919.13 184.328 923.641 184.31 926.287 179.598C926.287 179.598 926.956 179.407 927.516 179.624C928.896 179.319 929.717 178.797 930.537 178.275C930.537 178.275 931.13 178.076 931.444 178.048Z" fill="#F4F8F7"/>
<path d="M1017.63 774C1019.49 774.679 1020.8 775.379 1022 776.776C1006.46 781.423 1003.78 785.286 1006.47 799.44C1007.19 803.215 1007.67 807.032 1007.79 811.111C968.181 816.314 929.201 822.983 888.922 821.886C874.556 816.009 860.774 810.181 846.926 804.501C826.793 796.244 806.24 794 784.719 799.38C766.72 803.88 750.086 810.97 734.242 820.223C733.201 820.88 732.411 821.859 731.347 823.24C727.157 826.041 723.549 829.627 719.276 830.656C679.679 840.194 639.967 849.291 600.008 858C599.152 856.949 598.576 856.414 598 855.879C607.962 853.166 617.849 850.163 627.9 847.799C650.032 842.594 672.274 837.825 694.411 832.636C702.519 830.736 710.76 828.825 718.359 825.639C723.246 823.59 726.722 818.624 731.442 815.974C747.332 807.057 763.397 798.343 782.08 795.872C792.747 794.462 803.39 792.47 814.109 791.922C831.309 791.042 847.451 796.912 861.617 804.892C882.055 816.405 903.382 819.694 926.068 817.573C943.412 815.951 960.64 813.168 977.913 810.851C984.032 810.031 990.174 809.256 996.198 807.986C997.348 807.744 998.679 805.311 998.754 803.834C999.14 796.199 995.424 787.632 1002.79 781.579C1006.84 778.256 1012.27 776.489 1017.63 774Z" fill="#F4F6F5"/>
<path d="M218.28 545.902C219.459 545.732 220.638 545.562 222.416 545.37C234.949 549.197 241.41 558.229 247.534 567.472C252.497 574.964 249.893 584.343 240.405 587.999C231.524 591.421 221.79 593.789 212.22 594.654C202.871 595.498 193.071 594.732 183.804 593.082C172.041 590.988 162.145 584.472 153.5 577.199C145.425 570.406 138.077 562.647 131.72 554.454C128.112 549.804 125.966 543.56 125.193 537.803C122.781 519.849 113.762 504.403 105.252 488.617C102.015 482.613 101.1 475.55 97.8501 469.553C93.5863 461.686 95.365 453.603 95.3836 445.641C95.3974 439.741 97.961 434.253 104.957 431.178C108.904 431.106 112.058 430.923 114.812 431.036C105.332 433.523 103.616 435.807 102.204 445.64C99.5887 463.854 106.671 479.541 115.624 495.247C121.459 505.484 127.165 516.595 128.868 527.834C132.115 549.263 145.202 563.667 162.576 576.13C162.762 576.263 162.954 576.391 163.132 576.533C184.613 593.573 208.483 592.428 233.009 583.835C242.79 580.408 244.916 575.606 239.065 567.632C233.246 559.701 225.296 553.091 218.28 545.902Z" fill="#F4F8F7"/>
<path d="M235.173 814.133C234.836 812.575 234.498 811.016 234 809C240.555 811.605 248.128 813.74 248.386 823.065C248.418 824.221 251.009 826.195 252.52 826.294C269.644 827.42 286.778 828.699 303.929 829.072C339.111 829.838 374.316 829.704 409.489 830.684C428.186 831.205 447.119 831.814 465.422 835.101C481.423 837.974 496.703 844.618 512.277 849.67C515.89 850.842 519.4 852.312 523 854.217C522.848 854.92 522.654 855.051 521.955 855.186C520.37 856.129 519.29 857.069 517.741 858C516.116 857.207 514.96 856.423 513.801 855.107C509.429 853.019 505.06 851.462 500.212 849.848C497.88 849.321 496.028 848.851 494.092 847.904C491.183 847.019 489.966 839.648 485.165 845.473C479.482 844.284 474.298 843.249 469.113 842.215C461.836 840.765 454.56 839.316 447.3 837.41C446.771 836.407 446.227 835.861 445.682 835.315C445.321 836.079 444.96 836.842 444.008 837.631C440.388 837.941 437.35 838.552 434.335 838.458C412.298 837.773 390.265 836.945 368.111 835.622C363.599 832.763 359.25 830.968 355.06 836.419C342.693 836.482 330.743 836.361 318.814 835.811C314.973 835.635 311.188 834.33 307.352 833.169C307.16 832.45 306.995 832.102 306.829 831.754C306.523 832.342 306.217 832.929 305.249 833.533C287.587 833.039 270.586 832.529 253.483 831.508C248.711 828.948 243.94 827.087 244.529 820.655C244.592 819.963 242.201 819.062 240.608 818.036C239.504 817.083 238.741 816.351 237.719 815.259C236.901 814.695 236.341 814.491 235.6 814.358C235.418 814.429 235.173 814.133 235.173 814.133Z" fill="#F4F6F5"/>
<path d="M234.361 895.763C233.41 893.569 232.963 891.14 233.002 888.116C234.986 887.505 236.484 887.489 238.315 887.853C240.791 887.598 242.933 886.963 245.605 886.262C247.198 886.19 248.262 886.183 249.684 886.55C252.622 886.287 255.203 885.65 258.384 884.934C261.408 884.822 263.832 884.789 266.661 885.159C272.052 885.183 277.037 884.804 282.614 884.431C289.337 884.164 295.467 883.892 301.675 884.044C303.115 884.566 304.479 884.665 306.197 884.802C306.785 884.894 307.017 884.946 307.334 885.435C309.714 887.349 312.009 888.826 314.459 890.601C314.896 891.272 315.263 891.529 316.228 891.671C318.272 891.235 319.804 890.796 321.83 890.371C323.89 890.873 325.456 891.361 327.073 892.23C328.026 892.768 328.928 892.924 330.247 893.086C331.347 893.497 332.029 893.904 332.791 894.83C334.808 895.909 336.746 896.467 339.242 897.012C344.016 898.04 348.232 899.082 352.504 900.565C355.818 902.485 359.074 903.965 362 905.656C361.418 906.577 361.168 907.289 360.918 908C350.426 904.965 339.765 902.389 329.479 898.794C311.647 892.561 294.062 885.726 274.489 890.214C272.265 890.724 269.802 890.139 267.476 890.344C257.667 891.206 247.86 892.107 238.076 893.198C236.93 893.326 235.932 894.72 234.361 895.763Z" fill="#F8F9F8"/>
<path d="M493 931.08C492.638 932.577 492.276 934.074 491.714 936C483.295 933.299 475.309 929.389 466.803 927.218C453.813 923.902 440.465 921.786 427 918.701C428.391 916.831 430.05 915.421 432.199 914C434.262 914.384 435.835 914.779 437.529 915.683C443.248 916.788 448.847 917.385 454.998 917.953C458.067 918.374 460.584 918.823 463.314 919.691C469.716 922.368 475.906 924.625 482.33 926.855C482.564 926.828 483.023 926.927 483.066 927.382C484.61 928.324 486.111 928.811 488.092 929.351C490.048 929.962 491.524 930.521 493 931.08Z" fill="#F8F9F8"/>
<path d="M425 918C415.288 916.7 405.54 915.629 395.874 914.039C385.337 912.306 374.876 910.091 364.139 907.17C363.906 905.981 363.917 905.708 364.561 905.435C369.5 904.965 373.805 904.494 378.69 904C382.673 904.57 386.077 905.164 389.486 906.173C390.908 906.692 392.324 906.794 394.277 906.875C395.883 906.949 396.952 907.045 398.119 907.602C400.039 908.153 401.86 908.243 404.282 908.31C409.217 908.912 413.551 909.539 418.015 910.638C420.43 913.407 422.715 915.703 425 918Z" fill="#F8F9F8"/>
<path d="M523.314 854C543.545 858.172 563.689 859.83 584.034 858.874C587.977 858.688 592.734 861.919 596 856.782C595.557 860.164 594.616 863.045 593.212 866C591.566 865.36 590.383 864.646 589.176 863.592C588.717 863.36 588.281 863.467 587.363 863.844C583.919 864.313 580.957 864.513 577.939 864.286C577.31 863.397 576.738 862.934 576.165 862.472C575.826 863.207 575.488 863.942 574.548 864.703C570.046 864.311 566.152 863.82 562.244 863.492C556.525 863.012 550.796 862.649 545.091 861.771C538.496 860.154 531.886 858.964 525.25 857.956C524.908 857.904 524.338 859.41 523.436 860.167C522.199 859.371 521.399 858.599 521 857.541C521.739 856.369 522.077 855.482 522.415 854.595C522.611 854.457 522.807 854.318 523.314 854Z" fill="#F4F6F5"/>
<path d="M171 418.009C170.183 423.856 168.817 429.615 167.305 435.337C165.985 440.327 164.501 445.276 162.94 450.769C168.773 452.157 167.706 456.828 165.573 462C159.845 455.043 159.3 447.684 162.951 439.327C165.209 434.159 165.399 428.152 166.794 421.132C149.398 424.21 133.629 427 118 429.324C123.645 427.479 129.144 426.079 134.655 424.723C143.663 422.505 152.679 420.314 161.692 418.113C164.591 418.044 167.489 417.974 171 418.009Z" fill="#F4F8F7"/>
<path d="M161 429C152.713 431.211 143.802 433.314 134.899 435.443C129.452 436.746 124.017 438.089 118.021 440.036C116.86 440.682 116.256 440.706 115.651 440.73C112.543 440.914 109.435 441.098 106 440.94C111.673 434.878 120.087 435.894 127.4 434.211C138.204 431.724 149.368 430.605 161 429Z" fill="#FAFAF7"/>
<path d="M218.297 912C218.001 910.777 217.723 908.977 218.531 908.28C223.041 904.393 227.814 900.774 233 897C232.418 899.164 231.877 901.909 230.136 903.51C226.716 906.654 222.628 909.161 218.297 912Z" fill="#F8F9F8"/>
<path d="M425.543 917.993C422.981 916.123 420.783 914.285 419 912C423.61 912.292 427.805 913.032 432 913.772C430.41 915.006 428.82 916.24 426.935 917.732C426.395 918.002 426.151 918.014 425.543 917.993Z" fill="#F9F9F7"/>
<path d="M926 179C923.887 183.414 919.337 183.43 914 182.532C917.51 181.214 921.477 180.056 926 179Z" fill="#F8F9F8"/>
<path d="M594 865.916C594.951 863.041 595.902 860.167 596.864 856.772C596.875 856.252 597.485 856.035 597.806 856C598.711 856.531 599.295 857.097 600 858.648C599.825 860.843 599.529 862.051 598.839 863.341C597.933 864.263 597.423 865.105 596.427 865.999C595.294 866.007 594.647 865.961 594 865.916Z" fill="#F6F9F7"/>
<path d="M493 362C492.318 362.462 491.198 363.024 490 362.999C490.802 362.308 491.682 362.204 493 362Z" fill="#F4F8F7"/>
<path d="M364 905.676C363.991 906.106 363.982 906.535 363.955 907.608C363.433 908.152 362.929 908.051 362.054 907.779C361.888 906.436 362.093 905.264 362.821 904C363.658 904.361 363.876 904.951 364 905.676Z" fill="#F6F9F7"/>
<path d="M930 178C929.661 178.454 928.93 178.838 928 179C928.403 178.495 929.005 178.213 930 178Z" fill="#F8F9F8"/>
<path d="M535.039 354.555C532.027 347.211 535.907 343.877 542.267 340.776C566.218 329.098 589.856 316.881 613.749 305.1C623.354 300.363 630.57 294.001 636.365 285.335C648.962 266.494 664.516 249.771 686.51 239.636C713.521 227.19 741.818 225.854 770.4 234.648C778.079 237.011 785.025 237.441 793.031 234.619C793.459 276.206 807.646 314.642 821 353.238C818.681 357.779 816.372 362.325 814.024 366.853C813.833 367.223 813.306 367.436 813.059 367.793C796.73 391.395 771.666 400.927 742.934 405.912C717.02 410.409 691.537 416.952 665.776 422.229C641.66 427.168 617.404 431.53 593.257 436.347C582.123 438.567 571.103 441.265 558.902 444C558.605 443.621 557.261 441.908 555.437 439.446C547.26 426.069 543.686 412.431 542.026 398.105C540.467 384.653 537.755 371.314 535.543 357.59C535.37 357.091 535.204 356.928 535.037 356.764C535.125 356.164 535.212 355.564 535.039 354.555Z" fill="#292929"/>
<path d="M1090.13 403.603C1090.14 404.193 1090.14 404.783 1090.18 406.273C1090.66 408.586 1091.09 409.998 1091.53 411.41C1091.52 411.993 1091.51 412.575 1091.51 414.146C1092 418.219 1092.48 421.304 1092.96 424.388C1092.95 424.972 1092.94 425.557 1092.95 427.103C1094.37 433.771 1095.77 439.478 1097.17 445.185C1097.21 446.166 1097.25 447.148 1097.31 449.037C1097.75 450.961 1098.15 451.977 1098.56 452.992C1098.62 457.359 1098.68 461.725 1098.74 467.284C1099.71 495.117 1100.68 521.757 1101.58 549.044C1101.51 556.464 1101.5 563.238 1101.49 570.012C1101.92 575.153 1101.89 580.373 1102.9 585.418C1104.41 592.956 1111.33 596.6 1118.22 597.791C1133.86 600.492 1149.76 602.003 1165.6 603.601C1171.43 604.189 1177.51 602.995 1183.25 603.847C1188.12 604.569 1192.81 606.815 1197.34 608.845C1203.44 611.58 1209.37 614.647 1215.22 617.814C1216.77 618.655 1217.75 620.38 1219 621.699C1217.34 622.607 1215.78 623.981 1214 624.311C1211.5 624.772 1208.83 624.454 1205.38 624.035C1185.61 609.285 1163.73 605.25 1139.84 608.652C1144.78 609.534 1149.78 610.234 1154.75 610.035C1169.52 609.443 1181.43 615.965 1193.34 622.549C1194.3 623.082 1194.53 624.729 1195.1 625.858C1192.24 626.24 1189.13 627.448 1186.56 626.824C1181.83 625.68 1177.49 623.304 1172.87 621.722C1167.81 619.99 1162.8 619.574 1158.17 623.07C1157.16 623.834 1155.54 624.315 1154.22 624.286C1137.25 623.915 1120.22 624.117 1103.36 622.708C1093.34 621.871 1088.9 612.972 1085.28 605.873C1073.04 581.884 1061.44 557.596 1050.5 533.084C1040.81 511.377 1037.03 488.311 1034.63 465.069C1034.25 461.429 1033.68 457.806 1033.66 453.208C1034.12 433.463 1034.12 414.685 1034.12 395.629C1032.73 397.094 1031.58 398.31 1030.29 399.673C1027.31 397.356 1024.64 395.285 1021.98 393.214C1019.15 379.764 1015.48 366.405 1013.73 352.838C1012.09 340.048 1012.46 327.04 1012.02 313.103C1012.2 311.797 1012.31 311.516 1012.74 310.855C1014.72 304.96 1015.82 299.247 1018.13 293.974C1022.55 283.875 1022.22 267.514 1016.53 258.169C1015.92 262 1015.28 265.592 1014.77 269.199C1014.05 274.337 1011.82 277.327 1005.27 276.431C994.178 274.911 983.008 273.846 971.753 272.427C971.636 272.264 971.836 271.92 971.903 271.55C971.691 270.775 971.412 270.37 971 269.379C972.29 261.428 972.562 253.668 975.378 246.778C981.185 232.571 993.132 222.396 1005.9 213.335C1018.01 204.738 1030.31 196.085 1046.58 194.61C1046.71 194.608 1047.19 194.448 1047.76 194.233C1049.56 193.972 1050.78 193.926 1052.46 194.117C1068.95 193.409 1077.78 204.723 1088.97 212.339C1088.06 209.665 1086.6 207.551 1085.27 205.371C1083.51 202.491 1081.86 199.558 1080.54 196.756C1081.17 196.953 1081.42 197.043 1081.83 197.427C1082.42 197.916 1082.84 198.112 1083.77 198.353C1091.79 200.687 1099 203.683 1102.45 210.644C1105.54 216.868 1109.19 223.383 1109.81 229.989C1111.06 243.243 1110.41 256.647 1110.54 269.989C1109.78 282.74 1102.78 293.089 1094.46 303.212C1088.49 289.798 1072.53 286.172 1063.85 275.752C1065.82 280.589 1068.3 285.173 1071.93 288.784C1078.99 295.803 1084.47 303.237 1084.55 313.19C1084.56 313.922 1085.39 314.647 1085.83 315.376C1085.34 321.022 1084.85 326.667 1084 333.293C1083.49 337.909 1083.35 341.545 1083.21 345.18C1083.17 346.576 1083.14 347.971 1083.16 350.259C1083.66 351.744 1084.1 352.337 1084.53 352.93C1085.03 355.641 1085.53 358.352 1086.04 362.117C1086.46 369.282 1086.79 375.399 1087.29 381.504C1087.65 385.846 1088.25 390.172 1088.74 394.504C1088.74 395.095 1088.74 395.685 1088.76 397.207C1089.23 399.961 1089.68 401.782 1090.13 403.603Z" fill="#FDCAA2"/>
<path d="M1081.17 197.067C1080.92 196.977 1080.68 196.887 1079.75 196.331C1069.91 195.183 1060.73 194.5 1051.56 193.818C1050.33 193.863 1049.11 193.909 1047.2 194.014C1046.19 194.082 1046.02 194.241 1046.01 194.549C1029.89 196.02 1017.61 204.664 1005.52 213.253C992.769 222.304 980.84 232.468 975.041 246.661C972.23 253.543 971.958 261.295 970.6 269.602C970.945 270.96 971.225 271.368 971.505 271.776C971.505 271.776 971.304 272.12 971.407 272.784C975.64 288.716 989.095 295.076 1003.16 300.292C1009.08 302.491 1012.87 304.809 1012.03 311.05C1011.92 311.331 1011.81 311.612 1011.57 312.326C995.948 313.594 980.451 314.319 964.979 315.368C962.369 315.544 959.247 316.521 957.422 318.134C944.735 329.352 929.267 334.511 912.114 335.251C889.957 336.207 869.26 342.129 848.523 348.644C840.293 351.23 831.203 351.521 821.943 353C808.051 314.617 793.889 276.25 794.001 234.548C825.121 228.118 852.047 212.693 880.566 200.586C899.969 192.349 920.313 185.972 940.625 178.495C963.228 173.663 985.41 168.966 1007.66 164.574C1034.82 159.214 1061.46 162.989 1087.93 168.92C1090.89 169.583 1093.93 170.041 1096.96 170.297C1102.89 170.797 1105.56 173.326 1103.34 179.658C1098.65 184.267 1098.26 187.992 1102.49 192.176C1105.01 194.671 1106.79 197.789 1108.97 200.583C1119.35 213.902 1125.88 228.275 1123.52 245.078C1122.86 249.755 1122.12 254.422 1121.42 259.094C1117.88 262.561 1114.34 266.029 1110.4 269.672C1109.87 256.519 1110.52 243.129 1109.28 229.888C1108.66 223.29 1105.01 216.781 1101.93 210.564C1098.48 203.61 1091.28 200.618 1083.13 197.959C1082.04 197.413 1081.61 197.24 1081.17 197.067Z" fill="#5C8652"/>
<path d="M535.517 357.191C537.717 370.567 540.423 383.893 541.979 397.331C543.635 411.643 547.202 425.267 555 438.337C543.826 440.066 532.534 441.343 521.198 442.208C521.496 441.2 522.304 440.285 522.114 440.049C512.708 428.414 484.474 417.158 467.72 424.955C470.087 425.431 471.859 425.823 473.647 426.142C486.231 428.39 497.957 432.159 506.505 441.61C491.208 449.235 474.929 451.207 458.052 447.891C435.007 443.364 412.01 443.778 388.769 446.524C374.361 448.227 359.764 448.704 345.233 449.384C322.243 450.461 299.166 450.521 276.258 452.382C257.242 453.926 238.862 458.737 221.565 468.384C220.291 469.28 219.637 469.64 218.983 470C215.071 468.829 211.159 467.658 206.473 466.359C205.699 466.232 205.153 466.162 205.153 466.162C199.724 461.165 194.453 456.012 188.835 451.2C175.213 439.534 177.985 435.224 183.776 421.328C184.312 420.043 186.268 418.719 187.808 418.4C217.58 412.232 247.553 406.81 277.136 399.967C299.881 394.706 322.166 387.761 344.614 381.439C363.147 376.221 382.027 373.031 401.443 372.885C416.065 372.775 430.783 371.873 445.29 373.054C469.851 375.053 492.129 367.596 514.806 361.26C520.198 359.753 525.642 358.403 532.176 357C534.032 357.076 534.774 357.134 535.517 357.191Z" fill="#FDCAA2"/>
<path d="M115.191 430.955C116.206 430.637 116.821 430.613 117.86 430.416C134.138 427.586 149.99 424.93 167.478 422C166.076 428.684 165.885 434.402 163.615 439.323C159.944 447.278 160.492 454.285 166.241 461.431C166.661 461.669 166.638 461.711 166.753 462.135C170.528 465.807 174.188 469.055 177.849 472.303C177.849 472.303 177.904 472.198 177.976 472.526C178.501 473.032 178.955 473.21 179.408 473.387C179.408 473.387 179.423 473.396 179.676 473.776C195.429 483.85 196.357 483.916 206.739 476.089C207.456 475.848 208.173 475.607 209.574 475.164C212.877 477.444 215.495 479.926 218.114 482.408C218.065 484.245 218.017 486.083 217.852 488.941C217.241 492.658 216.746 495.354 216.251 498.051C216.251 498.051 216.019 498.293 215.713 498.822C214.346 504.528 213.285 509.705 212.224 514.883C212.224 514.883 211.966 515.454 211.855 515.904C211.553 516.649 211.605 516.901 211.9 517.112C211.644 517.774 211.387 518.435 211.015 520.022C210.919 521.505 210.938 522.064 210.957 522.622C210.754 523.454 210.55 524.286 210.109 525.956C209.484 531.152 206.367 535.935 212.218 539.321C212.218 539.321 212.192 539.442 212.421 539.824C214.231 541.415 215.811 542.625 217.391 543.835C217.391 543.835 217.519 543.73 217.56 544.065C218.061 544.629 218.52 544.857 218.98 545.085C218.98 545.085 218.955 545.144 218.937 545.173C225.953 552.352 233.923 558.927 239.757 566.815C245.623 574.746 243.491 579.522 233.685 582.93C209.098 591.477 185.167 592.616 163.633 575.668C163.454 575.527 163.262 575.4 163.075 575.267C145.658 562.871 132.537 548.545 129.282 527.231C127.575 516.053 121.854 505.002 116.005 494.821C107.029 479.199 99.9292 463.596 102.551 445.481C103.967 435.701 105.687 433.429 115.191 430.955Z" fill="#5C8652"/>
<path d="M1101.47 569.456C1100.84 563.208 1100.85 556.891 1101.47 550.1C1105.51 549.861 1108.94 550.096 1112.37 550.331C1112.81 550.427 1113.26 550.444 1114.3 550.682C1116.85 551.451 1118.8 551.919 1120.75 552.387C1121.31 552.455 1121.86 552.523 1123.05 552.77C1124.06 553.217 1124.47 553.358 1124.94 553.372C1125.59 553.476 1126.24 553.581 1127.65 553.93C1129.19 554.233 1129.96 554.291 1130.73 554.348C1133.65 554.528 1136.57 554.707 1140.11 554.84C1155.4 556.851 1170.06 558.867 1184.71 560.999C1188.19 561.507 1191.68 562.222 1195.02 563.199C1196.61 563.665 1199.14 565.16 1198.99 565.857C1198.68 567.39 1197.28 569.244 1195.69 569.993C1193.51 571.017 1190.76 571.477 1188.22 571.587C1174.06 572.206 1159.87 573.155 1145.71 572.978C1135.15 572.846 1124.62 571.152 1114.07 570.209C1110.09 569.853 1106.09 569.656 1101.47 569.456Z" fill="#E8B390"/>
<path d="M507.836 442.702C498.558 433.009 486.707 429.154 473.99 426.856C472.183 426.529 470.392 426.129 468 425.642C484.932 417.669 513.466 429.179 522.971 441.077C523.164 441.318 522.347 442.254 521.576 443C516.926 443.001 512.7 442.866 507.836 442.702Z" fill="#E2AF8A"/>
<path d="M1022 394C1024.65 395.539 1027.28 397.578 1030.22 399.858C1031.5 398.517 1032.63 397.32 1034 395.878C1034 414.638 1034 433.125 1033.59 452C1032.42 447.391 1030.88 442.37 1031.06 437.402C1031.62 422.405 1028.4 408.202 1022 394Z" fill="#E2B391"/>
<path d="M206 477.312C195.995 485.276 195.049 485.208 179 475C183.046 476.234 187.266 478.064 191.674 479.366C193.6 479.935 195.967 479.686 198.037 479.337C200.552 478.913 202.966 477.991 206 477.312Z" fill="#F4F8F7"/>
<path d="M212 516C212.51 510.799 213.564 505.595 215.008 500C215.647 504.089 216.122 508.574 215.972 513.042C215.938 514.059 213.744 515.013 212 516Z" fill="#F4F8F7"/>
<path d="M178 471C174.333 468.465 170.713 465.435 167 462.003C173.555 461.853 175.318 466.627 178 471Z" fill="#F4F8F7"/>
<path d="M218 484C214.939 481.346 212.215 478.28 209 475.097C210.516 468.985 213.647 473.564 214.788 474.969C216.619 477.226 217.217 480.655 218 484Z" fill="#F4F8F7"/>
<path d="M212 540C205.27 537.008 208.881 532 209.711 527C210.713 530.858 211.333 535.152 212 540Z" fill="#F4F8F7"/>
<path d="M216 499C216.036 496.325 216.854 493.418 218 490C217.813 492.582 217.297 495.675 216 499Z" fill="#F4F8F7"/>
<path d="M217 545C215.326 543.969 213.744 542.256 212 540C213.589 541.078 215.341 542.698 217 545Z" fill="#F4F8F7"/>
<path d="M219 471.159C219.495 470.119 219.996 469.675 220.748 469C221 470.73 221 472.691 221 474.652C220.694 474.768 220.388 474.884 220.081 475C219.723 473.919 219.364 472.837 219 471.159Z" fill="#F4F8F7"/>
<path d="M199.028 474C198.91 472.646 199.189 471.323 199.468 470C199.979 470.259 200.489 470.518 201 470.777C200.475 471.862 199.95 472.947 199.028 474Z" fill="#F4F8F7"/>
<path d="M179.036 448C179.683 449.004 179.841 450.002 180 451C179.333 450.991 178.667 450.981 178 450.972C178.182 449.979 178.365 448.986 179.036 448Z" fill="#F4F8F7"/>
<path d="M177.103 418C178.088 418.956 179.044 419.992 180 421.028C179.549 421.352 179.097 421.676 178.646 422C178.17 421.024 177.694 420.048 177.065 418.598C176.911 418.125 177.075 418.079 177.103 418Z" fill="#F4F8F7"/>
<path d="M171 430C171.904 430.113 172.452 430.392 173 430.67C172.762 430.78 172.525 430.89 172.287 431C171.739 430.722 171.192 430.443 171 430Z" fill="#F4F8F7"/>
<path d="M204.587 466.216C205.01 465.897 205.674 466.001 206 466.091C205.55 467.121 204.775 468.06 204 469C204.054 468.179 204.109 467.357 204.587 466.216Z" fill="#F4F8F7"/>
<path d="M184 470C184.227 469.096 184.783 468.548 185.34 468C185.56 468.238 185.78 468.476 186 468.713C185.443 469.261 184.887 469.808 184 470Z" fill="#F4F8F7"/>
<path d="M222 505C221.37 504.853 220.661 504.704 220.013 504.504C219.94 504.482 220.204 504.175 220.311 504C220.833 504.218 221.355 504.436 221.942 504.849C222.009 505.044 221.94 504.982 222 505Z" fill="#F4F8F7"/>
<path d="M179 473.893C178.789 474.257 178.446 473.7 178 472.117C178.221 471.718 178.544 472.345 179 473.893Z" fill="#F4F8F7"/>
<path d="M211.748 517C210.84 516.944 210.707 516.6 211.634 516C212.131 516.129 212.074 516.451 211.748 517Z" fill="#F4F8F7"/>
<path d="M218 545.943C217.741 546.138 217.415 545.832 217 545.054C217.252 544.869 217.593 545.155 218 545.943Z" fill="#F4F8F7"/>
<path d="M599.141 863.468C599.433 862.324 599.725 861.179 600.178 859.618C640.025 849.955 679.745 840.837 719.35 831.277C723.624 830.246 727.233 826.652 731.796 823.738C733.151 822.534 733.86 821.838 734.569 821.142C750.166 811.546 766.804 804.44 784.806 799.929C806.331 794.537 826.888 796.786 847.025 805.062C860.876 810.755 874.661 816.597 889 823.115C888.694 866.982 882.75 909.986 886.232 953.211C869.216 971.022 845.31 973.455 823.001 977.35C792.528 982.671 761.377 983.511 730.467 979.428C701.932 975.658 673.558 970.709 644.986 967.261C632.172 965.715 619.008 965.886 606.079 966.589C598.759 966.987 594.963 965.058 593.123 957.522C588.307 942.012 588.002 927.254 590.702 912.297C593.391 897.403 595.738 882.453 598.489 867.172C598.876 865.701 599.008 864.585 599.141 863.468Z" fill="#292929"/>
<path d="M1084.83 964.739C1086.29 976.096 1086.81 987.681 1089.73 998.684C1090.7 1002.36 1097.43 1006.16 1102.14 1007.12C1113.33 1009.4 1124.94 1009.71 1136.29 1011.37C1150.39 1013.43 1164.8 1014.79 1178.32 1018.81C1188.3 1021.79 1197.06 1028.55 1206.02 1034.05C1195.73 1031.23 1185.78 1027.97 1175.84 1024.72C1175.64 1025.22 1175.43 1025.72 1175.23 1026.23C1183.41 1030.45 1191.6 1034.68 1199.78 1038.91C1197.25 1044.25 1192.21 1042.22 1187.35 1042.03C1173.89 1030.02 1159.97 1022.02 1140.74 1028.74C1146.31 1029.37 1151.29 1029.42 1155.98 1030.55C1164.5 1032.6 1173 1035.02 1178.45 1042.5C1175.31 1042.56 1171.72 1043.59 1169.1 1042.5C1152 1035.35 1134.42 1038.16 1116.85 1039.41C1103.41 1040.36 1089.59 1041.53 1078.03 1033.18C1072.73 1029.35 1067.95 1024.16 1064.6 1018.65C1056.08 1004.66 1048.35 990.217 1040.62 975.8C1038.05 971.023 1036.44 965.78 1033.65 960.081C1015.44 918.27 1010.32 875.294 1012.46 831.299C1012.83 823.601 1017.59 818.15 1025.1 815.655C1031.97 813.374 1039.15 811.938 1046.74 810.16C1050.76 808.89 1054.13 807.128 1057.72 806.368C1076.03 802.496 1094.26 797.868 1112.79 795.547C1124.64 794.063 1136.99 795.984 1149.09 796.75C1150.84 796.861 1153.81 798.953 1153.91 800.293C1154.54 808.374 1155.36 816.65 1149.52 823.687C1144.79 829.388 1140.11 835.125 1134.18 842.339C1137.58 841.153 1139.27 840.665 1140.87 839.993C1154.63 834.219 1161.75 823.595 1164.43 809.911C1165.41 804.89 1167.77 802.281 1173.4 803.405C1175.23 803.772 1177.09 804.17 1178.95 804.231C1187.25 804.501 1195.54 804.654 1203.84 804.85C1210.95 806.805 1218.22 808.331 1225.11 810.829C1233 813.688 1237.36 819.414 1236.98 829.073C1233.86 856.465 1222.17 878.622 1201.66 896.141C1182.84 912.225 1150.38 913.633 1130.29 899.57C1136.1 897.528 1141.56 895.868 1147.01 894.207C1141.75 893.105 1136.73 893.672 1131.89 893.002C1115.68 890.756 1109.08 894.205 1108.15 874.931C1107.93 870.171 1104.62 865.545 1102.73 860.858C1102.02 861.076 1101.3 861.294 1100.59 861.512C1100.59 874.028 1100.59 886.544 1100.5 899.523C1098.14 903.894 1096.07 907.927 1093.56 911.687C1086.82 921.783 1083.07 932.658 1083.36 944.726C1083.5 950.101 1083.51 955.479 1083.56 961.187C1083.73 962.122 1083.92 962.726 1084.37 963.646C1084.7 964.221 1084.76 964.48 1084.83 964.739Z" fill="#FCCAA2"/>
<path d="M598 866.762C595.506 881.665 593.162 896.593 590.477 911.463C587.78 926.398 588.085 941.133 592.532 956.269C578.405 958.347 565.084 955.961 552.492 949.563C550.281 948.439 547.667 948.049 544.906 946.838C544.239 936.409 530.736 923.12 522.027 922.783C525.833 929.715 529.971 937.255 534.11 944.795C522.154 944.811 511.901 939.82 501.709 934.612C499.229 933.345 496.633 932.288 493.578 931.104C491.598 930.494 490.129 929.915 487.991 928.873C485.928 927.863 484.535 927.315 483.142 926.768C483.142 926.768 482.684 926.665 482.222 926.254C475.614 923.506 469.468 921.169 463.323 918.831C460.82 918.366 458.316 917.9 454.9 917.074C448.58 916.003 443.172 915.293 437.765 914.582C436.201 914.173 434.636 913.763 432.584 913.365C427.742 912.501 423.388 911.624 418.474 910.831C413.585 910.321 409.258 909.727 403.981 908.81C401.381 908.341 399.73 908.195 398.079 908.048C397.012 907.957 395.944 907.867 394.038 907.452C391.983 906.998 390.767 906.867 389.551 906.737C386.153 906.174 382.754 905.612 378.381 904.702C369.169 902.831 360.932 901.307 352.695 899.784C348.463 898.75 344.232 897.716 339.129 896.321C336.466 895.312 334.675 894.664 332.883 894.017C332.199 893.614 331.514 893.211 330.16 892.488C328.717 891.971 327.945 891.774 327.173 891.576C325.601 891.092 324.029 890.608 321.654 889.733C316.342 887.822 311.834 886.301 307.326 884.781C307.092 884.729 306.859 884.678 305.966 884.244C304.088 883.713 302.871 883.563 301.653 883.414C295.499 883.684 289.345 883.954 282.114 883.907C276.083 883.908 271.13 884.224 266.177 884.541C263.744 884.574 261.311 884.606 257.712 884.647C254.092 885.087 251.638 885.518 249.184 885.949C248.116 885.956 247.047 885.963 244.905 885.984C241.821 886.411 239.809 886.823 237.797 887.236C236.293 887.252 234.789 887.268 232.726 887.354C231.048 887.396 229.931 887.367 228.308 887.358C227.803 887.379 227.857 887.479 227.822 886.895C227.339 883.662 226.896 881.011 226.442 878.362C224.008 864.154 232.185 852.838 237.328 840.641C240.398 833.362 245.152 829.754 253.448 831.388C270.481 831.898 287.515 832.408 305.578 832.927C306.853 832.927 307.099 832.918 307.344 832.909C311.161 833.697 314.954 835 318.801 835.177C330.753 835.726 342.726 835.847 355.752 835.815C360.647 835.506 364.48 835.517 368.313 835.528C390.389 836.31 412.463 837.136 434.542 837.822C437.563 837.915 440.607 837.305 444.683 837.025C446.323 837.097 446.919 837.164 447.515 837.231C454.805 838.679 462.096 840.126 469.386 841.575C474.581 842.608 479.775 843.642 485.815 845.173C489.273 846.359 491.884 847.047 494.496 847.734C496.352 848.204 498.208 848.674 500.781 849.643C505.72 851.756 509.942 853.371 514.163 854.986C515.321 855.77 516.478 856.554 518.515 857.392C519.939 857.491 520.482 857.535 521.026 857.579C521.822 858.308 522.618 859.037 524.365 860.08C532.003 860.843 538.692 861.292 545.381 861.74C551.078 862.13 556.779 862.473 562.471 862.926C566.36 863.235 570.235 863.699 575.186 864.111C576.886 864.112 577.516 864.095 578.146 864.078C581.094 863.889 584.042 863.7 587.809 863.332C588.629 863.153 589.296 863.34 589.296 863.34C590.474 864.014 591.651 864.689 593.29 865.292C594.388 865.265 595.025 865.308 596.288 865.617C597.275 866.177 597.637 866.469 598 866.762Z" fill="#FDCAA2"/>
<path d="M1046 811C1038.98 812.788 1031.82 814.208 1024.97 816.463C1017.48 818.93 1012.73 824.319 1012.36 831.93C1010.22 875.425 1015.33 917.913 1033.19 958.907C1034.29 962.913 1031.97 963.148 1029.04 962.952C1005.86 961.403 982.697 959.591 959.495 958.498C946.941 957.906 934.314 958.322 921.736 958.722C909.441 959.113 897.372 958.972 886.205 952.116C882.504 909.172 888.431 866.93 889.288 823.952C928.935 824.302 967.81 817.736 1007.94 812.67C1011.32 812.183 1013.61 811.745 1015.91 811.68C1025.94 811.394 1035.97 811.217 1046 811Z" fill="#5C8652"/>
<path d="M1258 867.281C1271.8 861.603 1286.07 856.764 1299.3 850.075C1328.73 835.2 1356.62 839.962 1383.93 854.589C1387.97 856.747 1391.59 860.786 1393.73 864.773C1409.55 894.341 1411.92 925.756 1406.1 957.922C1402.37 978.529 1385.4 984.109 1366.07 970.754C1361.86 957.974 1354 951.553 1340.6 948.429C1326.9 945.236 1314.14 938.412 1300.99 933.133C1300.76 933.042 1300.79 932.378 1300.49 931.066C1306.2 928.615 1312.23 926.32 1317.96 923.485C1323.49 920.75 1324.29 915.199 1322.71 910.632C1321.63 907.542 1317.34 903.809 1314.12 903.461C1309.79 902.992 1305.1 905.508 1300.06 906.736C1297.96 906.193 1296.37 905.656 1294.46 904.782C1286.27 900.129 1278.73 895.113 1270.46 891.689C1261.85 888.121 1258.76 882.044 1258.11 873.97C1257.93 871.751 1258.03 869.511 1258 867.281Z" fill="#2A2A29"/>
<path d="M1300.12 906.78C1304.64 905.54 1309.31 903.014 1313.63 903.484C1316.84 903.834 1321.12 907.583 1322.19 910.685C1323.77 915.271 1322.97 920.845 1317.46 923.591C1311.74 926.437 1305.73 928.742 1300.04 931.204C1300.34 932.521 1300.31 933.187 1300.53 933.278C1313.65 938.58 1326.37 945.431 1340.03 948.637C1353.39 951.774 1361.23 958.221 1365 970.795C1351.32 975.613 1337.51 979.726 1323.91 984.407C1318.45 986.287 1313.43 989.377 1308.25 991.987C1304.95 993.649 1302.92 993.528 1301.2 989.628C1300.34 987.662 1297.16 985.505 1294.94 985.408C1284.27 984.946 1273.56 985.114 1262.87 985.143C1251.91 985.172 1248.34 982.322 1247.82 971.893C1247.55 966.554 1248.68 961.159 1248.57 955.8C1248.53 953.827 1247.25 950.742 1245.69 950.122C1237.28 946.782 1228.26 944.745 1220.1 940.969C1205.65 934.284 1192.21 940.193 1178.44 942.715C1174.83 943.378 1171.34 944.668 1167.24 945.031C1166.88 943.277 1166.94 942.123 1167.29 941.057C1169.65 933.848 1169.54 926.207 1178.74 921.651C1202.65 909.798 1222.99 893.595 1237.39 871.241C1239.96 867.256 1243.31 863.735 1246.3 860C1249.86 862.182 1253.41 864.363 1257.32 866.851C1257.7 869.396 1257.61 871.644 1257.78 873.873C1258.43 881.979 1261.51 888.082 1270.1 891.664C1278.34 895.103 1285.87 900.139 1293.74 905.168C1291.69 908.199 1288.54 910.236 1287.71 912.93C1285.38 920.511 1279.91 924.596 1273.22 928.372C1269.71 930.354 1267.42 934.318 1264.57 937.387C1272.58 934.788 1279.35 931.326 1285.79 927.366C1287.91 926.065 1289.35 923.59 1290.78 921.452C1294 916.627 1297.02 911.679 1300.12 906.78Z" fill="#FBCAA2"/>
<path d="M1246.34 859.208C1243.29 863.501 1239.92 867.052 1237.33 871.07C1222.84 893.613 1202.38 909.953 1178.32 921.906C1169.07 926.501 1169.18 934.206 1166.8 941.476C1166.45 942.551 1166.39 943.715 1166.16 945.398C1164.22 951.192 1160.54 953.813 1154.7 954.687C1149.87 955.409 1144.95 956.913 1140.61 959.066C1123.04 967.774 1104.44 966.361 1085.14 964.932C1084.42 964.632 1084.35 964.371 1084.1 963.469C1083.7 962.213 1083.47 961.6 1083.24 960.986C1083.17 955.578 1083.15 950.169 1083.02 944.762C1082.72 932.624 1086.48 921.685 1093.23 911.53C1095.74 907.748 1097.81 903.691 1100.81 899.231C1110.91 899.043 1120.28 899.385 1129.65 899.726C1150.11 913.487 1182.61 912.07 1201.46 895.892C1221.99 878.271 1233.7 855.984 1236.81 829C1238.08 829.618 1239.99 830.637 1240.64 832.157C1243.31 838.365 1245.95 844.632 1247.84 851.084C1248.5 853.309 1246.94 856.132 1246.34 859.208Z" fill="#5C8652"/>
<path d="M1046.54 809.518C1035.94 809.708 1025.89 809.889 1015.85 810.181C1013.54 810.248 1011.24 810.695 1008.32 810.91C1007.11 807.034 1006.63 803.196 1005.92 799.402C1003.22 785.173 1005.9 781.289 1021.68 776.973C1051.39 774.124 1080.3 778.095 1109.29 781.658C1120.24 783.004 1131.4 782.741 1142.47 783.198C1162.69 784.033 1179.91 793.287 1197.5 801.526C1199.18 802.313 1200.84 803.151 1203 804.061C1195.21 803.96 1186.92 803.806 1178.63 803.533C1176.78 803.471 1174.92 803.07 1173.08 802.7C1167.46 801.564 1165.1 804.199 1164.12 809.267C1161.45 823.079 1154.33 833.804 1140.58 839.632C1138.98 840.31 1137.3 840.803 1133.9 842C1139.83 834.719 1144.51 828.927 1149.23 823.173C1155.07 816.069 1154.24 807.715 1153.61 799.558C1153.51 798.206 1150.55 796.094 1148.79 795.982C1136.71 795.209 1124.37 793.27 1112.53 794.767C1094.02 797.11 1075.8 801.782 1057.51 805.69C1053.92 806.458 1050.56 808.236 1046.54 809.518Z" fill="#E9B38F"/>
<path d="M534.27 944.47C529.826 936.895 525.749 929.656 522 923C530.579 923.323 543.881 936.083 544 946C540.739 945.847 537.688 945.326 534.27 944.47Z" fill="#E2AF8A"/>
<path d="M1179.29 1041C1173.25 1031.3 1164.75 1028.17 1156.24 1025.52C1151.54 1024.05 1146.57 1023.98 1141 1023.18C1160.23 1014.47 1174.14 1024.82 1187 1040.25C1184.65 1040.89 1182.27 1040.95 1179.29 1041Z" fill="#E2AF8A"/>
<path d="M1199.84 1036C1191.22 1030.72 1183.11 1025.32 1175 1019.93C1175.2 1019.28 1175.4 1018.64 1175.6 1018C1185.46 1022.16 1195.32 1026.31 1205.73 1030.45C1206.38 1033.91 1206.38 1033.91 1199.84 1036Z" fill="#E2B391"/>
<path d="M1142 183.02C1142.08 182.814 1142.09 182.544 1142.25 182.411C1157.85 168.85 1172.52 154.183 1189.3 142.029C1210.33 126.803 1235.26 126.995 1260.23 132.167C1263.44 132.834 1266.62 135.065 1269.08 137.279C1294.19 159.888 1308.12 187.847 1313.5 219.564C1316.85 239.292 1303 249.311 1280.13 243.233C1272.84 234.126 1264.64 229.677 1252.56 230.254C1238.12 230.944 1223.58 229.868 1209.09 229.474C1207.66 229.435 1206.24 228.821 1203.97 228.266C1206.38 225.627 1208.02 223.525 1210 221.737C1212.18 219.77 1214.87 218.283 1216.96 216.249C1221.46 211.858 1221.69 204.91 1217.58 200.238C1213.26 195.324 1207.72 196.516 1202.86 198.823C1199.72 200.318 1197.48 203.455 1194.3 205.742C1192.34 205.381 1190.91 205.133 1189.01 204.667C1179.55 202.994 1170.61 201.032 1161.55 200.254C1154.71 199.666 1149.99 196.99 1146.69 191.765C1144.92 188.961 1143.55 185.942 1142 183.02Z" fill="#2A2A2A"/>
<path d="M1195.12 204.179C1197.77 201.792 1200.02 198.673 1203.17 197.187C1208.03 194.893 1213.59 193.707 1217.91 198.594C1222.03 203.239 1221.8 210.146 1217.29 214.513C1215.2 216.535 1212.5 218.014 1210.32 219.97C1208.34 221.748 1206.69 223.838 1204.27 226.461C1206.55 227.013 1207.97 227.624 1209.41 227.662C1223.92 228.054 1238.49 229.124 1252.95 228.438C1265.06 227.864 1273.27 232.287 1280 241.223C1276.91 244.439 1273.84 247.487 1270.33 250.002C1266.12 253.005 1261.89 256.408 1257.04 258.104C1248.95 260.936 1245.02 267.486 1239.44 272.558C1236.47 275.251 1233.82 278.237 1230.3 281.837C1225.94 274.917 1220.78 276.26 1214.28 277.847C1206.15 279.836 1198.17 281.002 1190.6 285.231C1180.92 290.636 1174.18 287.98 1169.62 278.563C1167.72 274.631 1166.05 270.441 1165.36 266.217C1164.47 260.839 1162.5 258.358 1155.93 258.667C1145.1 259.176 1134.22 258.672 1122.64 258.519C1122.62 253.739 1123.36 249.039 1124.01 244.33C1126.37 227.409 1119.84 212.936 1109.44 199.525C1107.26 196.711 1105.48 193.571 1102.95 191.06C1098.71 186.846 1099.11 183.096 1103.7 179C1113.39 186.896 1123.87 186.851 1135.03 182.851C1136.95 182.162 1139.06 181.916 1141.64 181.469C1143.75 184.379 1145.12 187.381 1146.89 190.169C1150.19 195.364 1154.93 198.025 1161.78 198.609C1170.85 199.383 1179.81 201.334 1189.14 203.541C1188.48 207.817 1186.7 211.328 1186.68 214.847C1186.65 220.212 1184.68 224.158 1180.95 228.254C1177.28 232.281 1175.13 237.48 1172.31 242.165C1173 242.519 1173.68 242.873 1174.36 243.228C1179.95 237.185 1185.61 231.193 1191.08 225.056C1192.17 223.836 1192.91 222.112 1193.14 220.536C1193.96 215.104 1194.49 209.634 1195.12 204.179Z" fill="#FBCAA2"/>
<path d="M1112 549.921C1108.82 550.138 1105.37 549.88 1101.39 549.482C1099.86 522.1 1098.88 494.858 1098 467C1099.41 468.816 1101.84 471.236 1101.88 473.683C1102.18 495.367 1102.19 517.057 1101.95 538.742C1101.9 544.081 1102.57 547.952 1109.61 547.827C1110.31 547.815 1111.03 548.88 1112 549.921Z" fill="#FAFAF7"/>
<path d="M1086.12 314C1085.4 313.639 1084.58 312.936 1084.57 312.229C1084.5 302.597 1079.05 295.403 1072.03 288.611C1068.42 285.117 1065.95 280.681 1064 276C1072.63 286.083 1088.49 289.593 1094 302.782C1091.73 306.571 1089.07 310.114 1086.12 314Z" fill="#E2AF8A"/>
<path d="M1088.55 395C1087.79 390.868 1087.28 386.334 1086.97 381.782C1086.54 375.383 1086.26 368.971 1086 362C1087.45 363.739 1089.98 366.031 1089.99 368.348C1090.07 377.091 1089.33 385.842 1088.55 395Z" fill="#FAFAF7"/>
<path d="M1096.81 445C1095.31 439.73 1094.14 434.123 1093 428C1098.1 432.186 1096.91 438.623 1096.81 445Z" fill="#FAFAF7"/>
<path d="M1083.29 345C1082.77 341.542 1082.97 337.959 1083.72 334C1084.18 337.374 1084.1 341.124 1083.29 345Z" fill="#FAFAF7"/>
<path d="M1093 423C1092.02 420.403 1091.49 417.465 1091 414C1091.85 416.535 1092.64 419.597 1093 423Z" fill="#FAFAF7"/>
<path d="M1090 403C1089.02 401.395 1088.47 399.46 1088 397C1088.86 398.54 1089.65 400.605 1090 403Z" fill="#FAFAF7"/>
<path d="M1121 552C1119.17 551.98 1117.22 551.282 1115 550C1116.78 550.052 1118.83 550.687 1121 552Z" fill="#FAFAF7"/>
<path d="M1092 411C1091.01 409.725 1090.47 408.126 1090 406C1090.86 407.207 1091.65 408.942 1092 411Z" fill="#FAFAF7"/>
<path d="M1099 453C1097.98 452.287 1097.44 451.341 1097 450C1097.89 450.659 1098.68 451.713 1099 453Z" fill="#FAFAF7"/>
<path d="M1084 353C1083.53 352.611 1083.25 351.999 1083 351C1083.42 351.334 1083.8 352.056 1084 353Z" fill="#FAFAF7"/>
<path d="M1131 553.647C1130.17 554.216 1129.24 554.083 1128 553.349C1128.76 552.814 1129.83 552.88 1131 553.647Z" fill="#FAFAF7"/>
<path d="M234.015 813.837C234.529 813.893 234.773 814.187 235.217 814.475C236.215 814.965 236.769 815.168 237.323 815.37C238.084 816.098 238.845 816.826 239.967 818.342C239.826 824.211 241.502 830.92 231.997 829.185C231.168 829.034 229.88 830.019 229.143 830.78C213.78 846.627 204.437 864.272 211.997 887.498C216.744 887.498 222.084 887.498 227.424 887.498C227.424 887.498 227.37 887.399 227.318 887.425C228.138 894.568 224.459 899.643 219.039 903.708C210.338 910.235 201.404 916.472 192.689 922.981C181.11 931.63 175.32 942.802 176.668 957.208C177.129 962.142 176.964 967.177 176.574 972.128C175.892 980.79 171.591 985.689 162.625 986.494C155.259 987.155 147.498 987.371 140.345 985.869C122.019 982.02 112.188 970.212 110.51 951.827C108.553 930.368 112.145 910.039 122.679 890.77C131.571 874.507 136.985 857.141 140.757 838.963C143.276 826.822 149.511 815.193 155.375 803.962C160.551 794.05 164.986 792.242 176.197 795.451C195.48 800.971 214.418 807.612 234.015 813.837Z" fill="#5C8652"/>
<path d="M734 821C733.592 821.809 732.962 822.363 732 823C732.372 822.304 733.075 821.524 734 821Z" fill="#F6F9F7"/>
<path d="M227.878 887.419C222.628 888 217.344 888 212.646 888C205.163 864.752 214.41 847.091 229.614 831.229C230.344 830.467 231.618 829.482 232.438 829.633C241.846 831.369 240.187 824.654 240.662 819C241.875 819.231 244.233 820.129 244.171 820.817C243.59 827.218 248.295 829.071 253 831.618C244.936 830.499 240.256 834.092 237.234 841.344C232.172 853.494 224.124 864.765 226.52 878.919C226.967 881.558 227.403 884.198 227.878 887.419Z" fill="#F6F9F7"/>
<path d="M514 854C509.749 852.86 505.494 851.162 501 849C505.173 850.171 509.585 851.806 514 854Z" fill="#F6F9F7"/>
<path d="M368 835.395C364.292 836.042 360.464 836.029 356 835.979C359.133 829.706 363.484 831.901 368 835.395Z" fill="#F6F9F7"/>
<path d="M494 846C491.502 845.858 488.922 845.396 486 844.704C489.916 840.461 491.121 845.407 494 846Z" fill="#F6F9F7"/>
<path d="M521.162 857.777C520.326 858.083 519.844 858.023 519 857.899C519.596 856.559 520.555 855.282 521.962 854C522.112 855.133 521.814 856.272 521.162 857.777Z" fill="#F6F9F7"/>
<path d="M448 836.749C447.19 837.075 446.402 837.019 445.018 836.938C444.9 836.275 445.378 835.638 445.856 835C446.578 835.456 447.3 835.911 448 836.749Z" fill="#F6F9F7"/>
<path d="M307 833.368C306.798 834.005 306.572 834.02 306.007 833.992C305.951 832.966 306.234 831.983 306.517 831C306.67 831.582 306.823 832.164 307 833.368Z" fill="#F6F9F7"/>
<path d="M238 814.929C237.644 815.147 236.979 814.862 236 814.071C236.354 813.852 237.022 814.139 238 814.929Z" fill="#F6F9F7"/>
<path d="M353 900C361.164 901.225 369.384 902.942 378 905.076C374.106 905.995 369.816 906.497 364.894 907C364.111 906.507 363.844 906.107 363.152 905.627C359.582 903.801 356.319 902.147 353 900Z" fill="#F9F9F7"/>
<path d="M307 885C311.504 886.292 316.096 888.099 321 890.355C319.747 891.32 318.181 891.837 315.932 892C314.961 891.208 314.586 890.905 314.124 890.737C311.778 888.997 309.433 887.256 307 885Z" fill="#F9F9F7"/>
<path d="M267 884.999C271.566 884.31 276.54 884.005 282 884C277.46 884.661 272.434 885.022 267 884.999Z" fill="#F9F9F7"/>
<path d="M250 887C251.938 885.994 254.209 885.452 257 885C255.125 885.881 252.728 886.673 250 887Z" fill="#F9F9F7"/>
<path d="M238 888C239.612 886.99 241.545 886.463 244 886C242.455 886.871 240.388 887.676 238 888Z" fill="#F9F9F7"/>
<path d="M333 894C334.832 894.146 336.75 894.864 339 896C337.25 895.802 335.168 895.187 333 894Z" fill="#F9F9F7"/>
<path d="M302 883.212C303.176 882.783 304.431 883.019 306 883.797C304.902 884.185 303.491 884.031 302 883.212Z" fill="#F9F9F7"/>
<path d="M315 891.051C315.269 890.87 315.602 891.169 316 891.948C315.731 892.131 315.397 891.832 315 891.051Z" fill="#F6F9F7"/>
<path d="M464 919C469.787 920.898 475.782 923.23 482 926C476.218 924.103 470.213 921.768 464 919Z" fill="#F9F9F7"/>
<path d="M438 915C443.138 915.183 448.392 915.896 454 917C448.941 916.771 443.529 916.15 438 915Z" fill="#F9F9F7"/>
<path d="M483 927C484.56 927.048 486.169 927.395 488 928C486.497 927.939 484.774 927.619 483 927Z" fill="#F9F9F7"/>
<path d="M390 907.222C391.227 906.786 392.46 907.001 394 907.784C392.873 908.192 391.44 908.032 390 907.222Z" fill="#F9F9F7"/>
<path d="M545 862C538.488 861.989 531.996 861.491 525.003 860.668C524.952 859.525 525.503 857.947 525.834 858.001C532.244 859.058 538.629 860.305 545 862Z" fill="#F6F9F7"/>
<path d="M578 863.607C577.508 864.001 576.969 864.017 576.026 863.993C575.911 863.302 576.199 862.651 576.488 862C576.976 862.409 577.464 862.819 578 863.607Z" fill="#F6F9F7"/>
<path d="M598.581 866.991C597.926 867.059 597.541 866.736 597 866.065C597.378 864.839 597.913 863.962 598.86 863C599.132 864.144 598.991 865.373 598.581 866.991Z" fill="#F4F6F5"/>
<path d="M1012.64 309C1013.15 303.208 1009.39 300.919 1003.49 298.746C989.49 293.592 976.096 287.309 972 271.728C983.085 272.473 994.186 273.524 1005.21 275.024C1011.72 275.909 1013.93 272.957 1014.65 267.886C1015.16 264.326 1015.79 260.781 1016.41 257C1022.06 266.223 1022.38 282.371 1017.99 292.339C1015.7 297.544 1014.6 303.182 1012.64 309Z" fill="#DEAD8C"/>
<path d="M1052 194.033C1060.85 194.498 1070.17 195.209 1079.78 196.294C1081.79 199.696 1083.47 202.749 1085.25 205.747C1086.6 208.017 1088.08 210.217 1089 213C1077.66 205.073 1068.71 193.296 1052 194.033Z" fill="#E2B391"/>
<path d="M1046.07 195C1045.85 194.18 1046.16 193.755 1046.97 194.148C1047.17 194.567 1046.3 194.995 1046.07 195Z" fill="#E2B391"/>
<path d="M972 271C971.586 270.968 971.252 270.633 971 270C971.415 270.033 971.747 270.365 972 271Z" fill="#DEAD8C"/>
<path d="M1081 197.058C1081.42 196.868 1082.1 197.142 1083 197.937C1082.57 198.145 1081.91 197.834 1081 197.058Z" fill="#E2B391"/>
<path d="M1130.07 898.996C1120.24 899.038 1110.77 898.705 1100.65 898.433C1100 886.211 1100 873.927 1100 861.643C1100.72 861.428 1101.45 861.214 1102.17 861C1104.08 865.601 1107.43 870.141 1107.66 874.813C1108.59 893.731 1115.27 890.345 1131.69 892.549C1136.59 893.208 1141.68 892.651 1147 893.733C1141.48 895.362 1135.95 896.992 1130.07 898.996Z" fill="#E2AF8A"/>
<path d="M1300 905.352C1297.41 910.583 1294.4 915.861 1291.18 921.006C1289.75 923.286 1288.31 925.925 1286.2 927.313C1279.76 931.536 1273 935.228 1265 938C1267.84 934.727 1270.14 930.499 1273.64 928.386C1280.33 924.359 1285.79 920.003 1288.11 911.918C1288.94 909.044 1292.09 906.872 1294.46 904C1296.33 904.195 1297.91 904.77 1300 905.352Z" fill="#D6A37D"/>
<path d="M1194 203.467C1193.9 209.373 1193.38 215.173 1192.57 220.935C1192.34 222.606 1191.61 224.434 1190.54 225.728C1185.14 232.236 1179.55 238.591 1174.02 245C1173.35 244.624 1172.67 244.249 1172 243.873C1174.78 238.904 1176.9 233.39 1180.53 229.119C1184.21 224.775 1186.16 220.591 1186.19 214.901C1186.2 211.169 1187.96 207.446 1189.09 203.141C1190.65 202.825 1192.06 203.086 1194 203.467Z" fill="#D6A37D"/>
</svg>
